<svg height="512" viewBox="0 0 512 512" width="512" xmlns="http://www.w3.org/2000/svg"><g id="_08_Cursor" data-name="08 Cursor"><path d="m410 513h-308a102.12 102.12 0 0 1 -102-102v-308a102.12 102.12 0 0 1 102-102h308a102.12 102.12 0 0 1 102 102v308a102.12 102.12 0 0 1 -102 102zm-308-472a62.07 62.07 0 0 0 -62 62v308a62.07 62.07 0 0 0 62 62h308a62.07 62.07 0 0 0 62-62v-308a62.07 62.07 0 0 0 -62-62z"/><path d="m256 325.36a20 20 0 0 1 -20-20v-185.92a20 20 0 0 1 40 0v185.92a20 20 0 0 1 -20 20z"/><path d="m256 339.62a33.58 33.58 0 0 1 -23.9-9.89l-77.56-77.55a20 20 0 0 1 28.29-28.29l73.17 73.18 73.17-73.18a20 20 0 0 1 28.29 28.29l-77.56 77.55a33.58 33.58 0 0 1 -23.9 9.89z"/><path d="m343.32 412.56h-174.64a20 20 0 0 1 0-40h174.64a20 20 0 0 1 0 40z"/></g></svg>